<?xml version="1.0" standalone="no"?>
<!DOCTYPE svg PUBLIC "-//W3C//DTD SVG 20010904//EN"
 "http://www.w3.org/TR/2001/REC-SVG-20010904/DTD/svg10.dtd">
<svg version="1.0" xmlns="http://www.w3.org/2000/svg"
 width="450.000000pt" height="517.000000pt" viewBox="0 0 450.000000 517.000000"
 preserveAspectRatio="xMidYMid meet">

<g transform="translate(0.000000,517.000000) scale(0.100000,-0.100000)"
fill="#000000" stroke="none">
<path d="M2105 4945 c-455 -80 -824 -353 -1027 -760 -211 -423 -193 -924 48
-1333 208 -350 568 -599 969 -668 212 -36 466 -17 672 51 814 270 1195 1192
810 1960 -187 374 -525 636 -952 737 -108 26 -406 33 -520 13z m381 -236 c322
-45 622 -233 803 -504 308 -461 249 -1067 -143 -1459 -156 -156 -342 -258
-568 -313 -103 -25 -393 -25 -496 0 -226 55 -412 157 -568 313 -382 382 -449
972 -163 1429 239 382 693 596 1135 534z"/>
<path d="M1940 4045 l-75 -75 -70 70 c-39 38 -75 70 -80 70 -14 0 -165 -152
-165 -166 0 -5 32 -41 70 -79 l71 -69 -71 -71 c-38 -39 -70 -75 -70 -80 0 -13
152 -165 165 -165 5 0 41 32 80 70 l71 70 69 -70 c38 -38 74 -70 80 -70 13 0
165 152 165 165 0 6 -32 42 -70 80 l-70 69 70 71 c38 39 70 75 70 80 0 6 -37
47 -83 93 l-82 82 -75 -75z"/>
<path d="M2562 4037 c-45 -45 -82 -87 -82 -92 0 -5 32 -41 70 -80 l70 -71 -70
-69 c-38 -38 -70 -74 -70 -80 0 -12 152 -165 164 -165 4 0 41 31 80 70 l72 70
69 -70 c38 -39 74 -70 80 -70 13 0 165 152 165 165 0 5 -32 41 -70 80 l-71 71
71 69 c38 39 70 74 70 80 0 6 -37 47 -83 93 l-82 82 -75 -75 -75 -75 -75 75
-75 75 -83 -83z"/>
<path d="M2217 3330 c-92 -11 -198 -44 -282 -88 -95 -50 -218 -172 -268 -269
l-37 -71 107 -36 c60 -20 113 -36 119 -36 7 0 17 14 25 32 7 17 38 57 68 88
93 94 216 140 378 140 113 0 179 -13 263 -53 72 -33 167 -122 189 -175 8 -18
18 -32 25 -32 6 0 59 16 119 36 l107 36 -37 71 c-56 107 -173 222 -283 275
-47 23 -119 51 -160 61 -91 23 -241 32 -333 21z"/>
<path d="M1239 1812 c-27 -12 -129 -125 -375 -412 -187 -218 -351 -410 -367
-429 -47 -57 -31 -153 33 -186 24 -12 80 -15 330 -15 l300 0 0 -175 0 -175
125 0 125 0 0 175 0 175 115 0 115 0 0 120 0 120 -115 0 -115 0 0 353 c0 315
-2 356 -18 386 -33 65 -95 90 -153 63z m-79 -622 l0 -180 -151 0 c-84 0 -149
4 -147 9 3 9 291 350 296 351 1 0 2 -81 2 -180z"/>
<path d="M2153 1819 c-114 -22 -211 -98 -259 -202 l-29 -62 0 -430 c0 -392 2
-434 18 -474 43 -105 130 -185 236 -215 76 -22 346 -22 422 0 103 29 186 104
235 209 17 37 19 76 22 453 3 357 1 421 -13 469 -39 133 -142 227 -280 252
-67 13 -290 13 -352 0z m356 -255 c48 -34 51 -57 51 -446 0 -390 -1 -393 -53
-432 -26 -19 -42 -21 -177 -21 -135 0 -151 2 -177 21 -52 39 -53 42 -53 432 0
389 3 412 51 446 19 13 51 16 179 16 128 0 160 -3 179 -16z"/>
<path d="M3797 1818 c-41 -15 -765 -862 -773 -904 -8 -43 18 -100 58 -124 31
-19 50 -20 336 -20 l302 0 0 -175 0 -175 120 0 120 0 0 175 0 175 115 0 115 0
0 120 0 120 -115 0 -115 0 0 363 c0 267 -4 368 -13 386 -27 53 -96 80 -150 59z
m-80 -805 c-2 -2 -73 -2 -156 -1 l-152 3 153 179 153 179 3 -178 c1 -98 1
-180 -1 -182z"/>
</g>
</svg>
